/* XPM */
static const char * icon_xpm[] = {
"90 72 35 1",
" 	c None",
".	c #312D2E",
"+	c #2D2A2B",
"@	c #393536",
"#	c #4A4647",
"$	c #E8E7E8",
"%	c #4A4748",
"&	c #353132",
"*	c #332F30",
"=	c #2B2728",
"-	c #3D393A",
";	c #4D4A4B",
">	c #292526",
",	c #3A3738",
"'	c #454243",
")	c #555253",
"!	c #595556",
"~	c #656263",
"{	c #EBEBEB",
"]	c #514E4F",
"^	c #262223",
"/	c #201C1D",
"(	c #1D1A1B",
"_	c #B8B6B7",
":	c #D8D7D7",
"<	c #D8D8D7",
"[	c #E3E3E3",
"}	c #231F20",
"|	c #D4D3D3",
"1	c #DAD9DA",
"2	c #000000",
"3	c #CECDCE",
"4	c #9F9E9F",
"5	c #BEBDBE",
"6	c #433F41",
".+.++++++++.@#$                                                            $%@&..........*",
".+.++=+....&-%$                                                            $;-&&&......&.*",
"+=+=>&,'%;;)!~{                                                            {~!]];%'-.>=.++",
"^/^(;_:                                                                            <_)(^(^",
"^//>[                                                                                [>/}^",
"^^/^|                                                                                |^/}^",
"^}/^1                                                                                1^/}^",
"^//^1                                                                                1>//^",
"^}/^1      222222  2222                             222222  2222                     1^(^^",
"^}/^1     22222222222222                           22222222222222                    1>//^",
"^}/>1     222222222222222                          222222222222222                   1^/}^",
"^}(^1     222   222  2222                          222   222  2222                   1^/}^",
"^}/>1     222   222   222                          222   222   222                   1>/}^",
"^//^1     222   222   222                          222   222   222                   1^/}^",
"^}/^1     222   222   222                          222   222   222                   1^/}^",
"^}/^:     222   222   222                          222   222   222                   1^/}^",
"^}/^1     222   222   222    22     2222           222   222   222    22     2222    1>//^",
"^}/^1     222   222   222  2222    2222222         222   222   222  2222    2222222  1^/}^",
"^}(^1     222   222   222 22222    22  222         222   222   222 22222    22  222  1^(}^",
"^}/>1                      2 22        222                          2 22        222  1>/}^",
"^}/^1                        22        22                             22        22   1^/}^",
"^}/^1                        22       222                             22       222   1^/}^",
"^}/>1                        22      222                              22      222    1>/}^",
"^}/^1                        22     222                               22     222     1^(}^",
"^}/>1                        22    222                                22    222      1^/}^",
"^//^1                        22    2222222                            22    2222222  1^/}^",
"^}/^1                        22    2222222                            22    2222222  1^/}^",
"^}/^1                                                                                1^/}^",
"^}/^1                                                                                1^/}^",
"^}/^1                                                                                1^//^",
"^}(^1                                                                                1>/^^",
"^}/>1                                                                                1^//^",
"^}/^1                                                                                1^/}^",
"^}/>1                                                                                1>/}^",
"^}/^1                                                                                1^/}^",
"^}/^1                                                                                1^//^",
"^^(^1                                                                                1^/^^",
"^//^1                                                                                1^//^",
"^}/>1                                                                                1>/}^",
"^}/^1                                                                                1^/}^",
"^}/^1                                                                                1^/}^",
"^}/^1                                                                                1>/}^",
"^}/>:                                                                                1^//^",
"^//^1                                                                                1^/}^",
"^}/^1                                                                                1^/}^",
"^}/>1      222222  2222                             222222  2222                     1>/}^",
"^}/^1     22222222222222                           22222222222222                    1^/}^",
"^}/^:     222222222222222                          222222222222222                   1^/}^",
"^}(^1     222   222  2222                          222   222  2222                   1^//^",
"^}/^1     222   222   222                          222   222   222                   1^/}^",
"^}/>:     222   222   222                          222   222   222                   1^/}^",
"^}/^:     222   222   222                          222   222   222                   1>(}^",
"^}/^1     222   222   222                          222   222   222                   1^/}^",
"^}/^1     222   222   222  2222       22           222   222   222   2222     2222   1>/}^",
"^}(>1     222   222   222 2222222   2222           222   222   222  2222222  2222222 1^/}^",
"^}/^1     222   222   222 22  222  22222           222   222   222  22  222  22  222 3^/}^",
"^}/^1                         222   2 22                                222      222 4^(}^",
"^}/>1                         22      22                                22       22  5>/}^",
"^}/^1                        222      22                               222      222  1^/}^",
"^}/^1                       222       22                              222      222   1^/}^",
"^^(^1                      222        22                             222      222    1^/}^",
"^//^1                     222         22                            222      222     1^/}^",
"^}/>1                     2222222     22                            2222222  2222222 1>/}^",
"^}/^1                     2222222     22                            2222222  2222222 1^//^",
"^}/^1                                                                                1^/}^",
"^}/^1                                                                                1^/}^",
"^}/^|                                                                                |^/}^",
"^//>[                                                                                [>/}^",
"^(^()_:                                                                            :_)/}/}",
"++++>*,6%;;)!~{                                                            {~!]];%'-.>=.++",
".+.+++++...&-;$                                                            $;-&&&......&.*",
"++.++++++++.@%$                                                            $%,*........*.*"};
